# xmcd
#
# Track frame offsets: 
#        150
#        17907
#        34519
#        50586
#        61423
#        73062
#        88813
#        101868
#        112303
#        125252
#        143291
#        162253
#        176993
#        194400
#
# Disc length: 2844 seconds
#
# Revision: 0
# Processed by: cddbd v1.4PL0 Copyright (c) Steve Scherf et al.
# Submitted via: ExactAudioCopy v0.95a2
#
DISCID=cd0b1a0e
DTITLE=Bob Marley and the wailers - Greatest hits vol. 2
DYEAR=1900
DGENRE=Reggae
TTITLE0=Small axe
TTITLE1=Duppy conqueror
TTITLE2=Mr. Brown
TTITLE3=Screw face
TTITLE4=Lick samba
TTITLE5=Trenchtown rock
TTITLE6=Craven choke puppy
TTITLE7=Guava jelly
TTITLE8=Slave driver
TTITLE9=No more trouble
TTITLE10=Concrete jungle
TTITLE11=Get up stand up
TTITLE12=Rastaman chant
TTITLE13=Burnin' and Lootin'
EXTD=
EXTT0=
EXTT1=
EXTT2=
EXTT3=
EXTT4=
EXTT5=
EXTT6=
EXTT7=
EXTT8=
EXTT9=
EXTT10=
EXTT11=
EXTT12=
EXTT13=
PLAYORDER=
